<?xml version="1.0" encoding="UTF-8" standalone="no"?>
<!-- Created with Inkscape (http://www.inkscape.org/) -->
<svg
   xmlns:dc="http://purl.org/dc/elements/1.1/"
   xmlns:cc="http://web.resource.org/cc/"
   xmlns:rdf="http://www.w3.org/1999/02/22-rdf-syntax-ns#"
   xmlns:svg="http://www.w3.org/2000/svg"
   xmlns="http://www.w3.org/2000/svg"
   xmlns:sodipodi="http://sodipodi.sourceforge.net/DTD/sodipodi-0.dtd"
   xmlns:inkscape="http://www.inkscape.org/namespaces/inkscape"
   width="744.09448819"
   height="1052.3622047"
   id="svg2"
   sodipodi:version="0.32"
   inkscape:version="0.44.1"
   sodipodi:docbase="C:\Dokumente und Einstellungen\Christian\Desktop"
   sodipodi:docname="zaehler.svg">
  <defs
     id="defs4" />
  <sodipodi:namedview
     id="base"
     pagecolor="#ffffff"
     bordercolor="#666666"
     borderopacity="1.0"
     gridtolerance="10000"
     guidetolerance="10"
     objecttolerance="10"
     inkscape:pageopacity="0.0"
     inkscape:pageshadow="2"
     inkscape:zoom="1.6081777"
     inkscape:cx="259.80744"
     inkscape:cy="397.34837"
     inkscape:document-units="px"
     inkscape:current-layer="layer1"
     showgrid="true"
     inkscape:window-width="1280"
     inkscape:window-height="721"
     inkscape:window-x="-4"
     inkscape:window-y="-4"
     showguides="true"
     inkscape:guide-bbox="true">
    <sodipodi:guide
       orientation="vertical"
       position="118.92857"
       id="guide1984" />
    <sodipodi:guide
       orientation="horizontal"
       position="476.93734"
       id="guide1988" />
    <sodipodi:guide
       orientation="horizontal"
       position="444.28571"
       id="guide1990" />
    <sodipodi:guide
       orientation="horizontal"
       position="434.65346"
       id="guide1992" />
    <sodipodi:guide
       orientation="horizontal"
       position="394.64286"
       id="guide1994" />
    <sodipodi:guide
       orientation="horizontal"
       position="385"
       id="guide1998" />
    <sodipodi:guide
       orientation="horizontal"
       position="344.64286"
       id="guide2000" />
    <sodipodi:guide
       orientation="horizontal"
       position="334.64286"
       id="guide2004" />
    <sodipodi:guide
       orientation="horizontal"
       position="295"
       id="guide2006" />
    <sodipodi:guide
       orientation="vertical"
       position="-14.070222"
       id="guide3009" />
  </sodipodi:namedview>
  <metadata
     id="metadata7">
    <rdf:RDF>
      <cc:Work
         rdf:about="">
        <dc:format>image/svg+xml</dc:format>
        <dc:type
           rdf:resource="http://purl.org/dc/dcmitype/StillImage" />
      </cc:Work>
    </rdf:RDF>
  </metadata>
  <g
     inkscape:label="Layer 1"
     inkscape:groupmode="layer"
     id="layer1">
    <path
       style="fill:none;fill-opacity:0.75;fill-rule:evenodd;stroke:black;stroke-width:1px;stroke-linecap:butt;stroke-linejoin:miter;stroke-opacity:1"
       d="M 435.5,516.86218 L 455.5,516.86218 L 455.5,556.86218 L 475.5,556.86218 L 475.5,516.86218 L 495.5,516.86218 L 495.5,556.86218 L 515.5,556.86218 L 515.5,516.86218 L 535.5,516.86218 L 535.5,556.86218 L 555.5,556.86218 L 555.5,516.86218 L 575.5,516.86218"
       id="path1958"
       sodipodi:nodetypes="cccccccccccccc" />
    <path
       style="fill:none;fill-opacity:0.75;fill-rule:evenodd;stroke:black;stroke-width:1px;stroke-linecap:butt;stroke-linejoin:miter;stroke-opacity:1"
       d="M 275.71429,517.71932 L 295.71429,517.71932 L 295.71429,557.71932 L 315.71429,557.71932 L 315.71429,517.71932 L 335.71429,517.71932 L 335.71429,557.71932 L 355.71429,557.71932 L 355.71429,517.71932 L 375.71429,517.71932 L 375.71429,557.71932 L 395.71429,557.71932 L 395.71429,517.71932 L 415.71429,517.71932 L 415.71429,557.71932 L 435.71429,557.71932 L 435.71429,517.71932 L 435.71429,517.71932"
       id="path1960" />
    <path
       style="fill:none;fill-opacity:0.75;fill-rule:evenodd;stroke:black;stroke-width:1px;stroke-linecap:butt;stroke-linejoin:miter;stroke-opacity:1"
       d="M 115.5,516.86218 L 135.5,516.86218 L 135.5,556.86218 L 155.5,556.86218 L 155.5,516.86218 L 175.5,516.86218 L 175.5,556.86218 L 195.5,556.86218 L 195.5,516.86218 L 215.5,516.86218 L 215.5,556.86218 L 235.5,556.86218 L 235.5,516.86218 L 255.5,516.86218 L 255.5,556.86218 L 275.5,556.86218 L 275.5,516.86218 L 275.5,516.86218"
       id="path1962" />
    <path
       style="fill:none;fill-opacity:0.75;fill-rule:evenodd;stroke:black;stroke-width:1px;stroke-linecap:butt;stroke-linejoin:miter;stroke-opacity:1"
       d="M -23.962865,607.57647 L 16.037135,607.57647 L 16.037135,567.57647 L 56.037135,567.57647 L 56.037135,607.57647 L 96.037135,607.57647 L 96.037135,567.57647 L 136.03713,567.57647 L 136.03713,607.57647 L 176.03713,607.57647 L 176.03713,567.57647 L 216.03713,567.57647 L 216.03713,607.57647 L 256.03713,607.57647 L 256.03713,567.57647 L 296.03713,567.57647 L 296.03713,607.57647 L 336.03713,607.57647 L 336.03713,567.57647 L 376.03713,567.57647 L 376.03713,607.57647 L 416.03713,607.57647 L 416.03713,567.57647"
       id="path1964"
       sodipodi:nodetypes="ccccccccccccccccccccccc" />
    <path
       style="fill:none;fill-opacity:0.75;fill-rule:evenodd;stroke:black;stroke-width:1px;stroke-linecap:butt;stroke-linejoin:miter;stroke-opacity:1"
       d="M -23.835055,658.20872 L 56.164945,658.20872 L 56.164945,618.20872 L 136.16494,618.20872 L 135.8078,658.20872 L 215.45066,658.20872 L 215.8078,618.20872 L 295.8078,618.20872 L 295.8078,658.20872 L 375.09352,658.20872 L 375.45066,618.20872"
       id="path1996"
       sodipodi:nodetypes="ccccccccccc" />
    <g
       id="g2971"
       transform="matrix(0.719708,0,0,0.66707,-108.6857,213.8556)">
      <flowRoot
         transform="matrix(1,0,0,1.165856,53.49805,5.373103)"
         style="font-size:36px;fill:red"
         id="flowRoot2034"
         xml:space="preserve"><flowRegion
           id="flowRegion2036"><rect
             style="font-size:36px;fill:red"
             y="524.43542"
             x="32.956558"
             height="36.687489"
             width="73.374977"
             id="rect2038" /></flowRegion><flowPara
           style="font-size:36px;fill:red"
           id="flowPara2040">Q</flowPara></flowRoot>      <flowRoot
         transform="translate(72.39665,-60.14468)"
         style="font-size:24px;fill:red"
         id="flowRoot2042"
         xml:space="preserve"><flowRegion
           id="flowRegion2044"><rect
             style="font-size:24px;fill:red"
             y="698.54553"
             x="37.931133"
             height="59.073074"
             width="68.400398"
             id="rect2046" /></flowRegion><flowPara
           id="flowPara2048">B</flowPara></flowRoot>    </g>
    <path
       style="fill:none;fill-opacity:0.75;fill-rule:evenodd;stroke:black;stroke-width:1px;stroke-linecap:butt;stroke-linejoin:miter;stroke-opacity:1"
       d="M -23.73916,708.21932 L 136.61799,708.21932 L 135.9037,667.86218 L 296.26084,667.86218 L 296.61799,708.21932"
       id="path2002"
       sodipodi:nodetypes="ccccc" />
    <g
       id="g2945"
       transform="matrix(0.719708,0,0,0.66707,-111.0811,197.9156)">
      <flowRoot
         transform="matrix(1,0,0,1.165856,53.49805,-44.6269)"
         style="font-size:36px;fill:red"
         id="flowRoot2018"
         xml:space="preserve"><flowRegion
           id="flowRegion2020"><rect
             style="font-size:36px;fill:red"
             y="524.43542"
             x="32.956558"
             height="36.687489"
             width="73.374977"
             id="rect2022" /></flowRegion><flowPara
           style="font-size:36px;fill:red"
           id="flowPara2024">Q</flowPara></flowRoot>      <flowRoot
         transform="translate(72.39665,-110.1447)"
         style="font-size:24px;fill:red"
         id="flowRoot2026"
         xml:space="preserve"><flowRegion
           id="flowRegion2028"><rect
             style="font-size:24px;fill:red"
             y="698.54553"
             x="37.931133"
             height="59.073074"
             width="68.400398"
             id="rect2030" /></flowRegion><flowPara
           id="flowPara2032">A</flowPara></flowRoot>    </g>
    <g
       id="g2981"
       transform="matrix(0.719708,0,0,0.66707,-108.8721,230.0372)">
      <flowRoot
         transform="matrix(1,0,0,1.165856,53.75698,55.73026)"
         style="font-size:36px;fill:red"
         id="flowRoot2050"
         xml:space="preserve"><flowRegion
           id="flowRegion2052"><rect
             style="font-size:36px;fill:red"
             y="524.43542"
             x="32.956558"
             height="36.687489"
             width="73.374977"
             id="rect2054" /></flowRegion><flowPara
           style="font-size:36px;fill:red"
           id="flowPara2056">Q</flowPara></flowRoot>      <flowRoot
         transform="translate(72.65558,-9.787537)"
         style="font-size:24px;fill:red"
         id="flowRoot2058"
         xml:space="preserve"><flowRegion
           id="flowRegion2060"><rect
             style="font-size:24px;fill:red"
             y="698.54553"
             x="37.931133"
             height="59.073074"
             width="68.400398"
             id="rect2062" /></flowRegion><flowPara
           id="flowPara2064">C</flowPara></flowRoot>    </g>
    <g
       id="g2991"
       transform="matrix(0.719708,0,0,0.66707,-109.7671,247.1486)">
      <flowRoot
         transform="matrix(1,0,0,1.165856,55.00063,105.3731)"
         style="font-size:36px;fill:red"
         id="flowRoot2066"
         xml:space="preserve"><flowRegion
           id="flowRegion2068"><rect
             style="font-size:36px;fill:red"
             y="524.43542"
             x="32.956558"
             height="36.687489"
             width="73.374977"
             id="rect2070" /></flowRegion><flowPara
           style="font-size:36px;fill:red"
           id="flowPara2072">Q</flowPara></flowRoot>      <flowRoot
         transform="translate(73.89923,39.85532)"
         style="font-size:24px;fill:red"
         id="flowRoot2074"
         xml:space="preserve"><flowRegion
           id="flowRegion2076"><rect
             style="font-size:24px;fill:red"
             y="698.54553"
             x="37.931133"
             height="59.073074"
             width="68.400398"
             id="rect2078" /></flowRegion><flowPara
           id="flowPara2080">D</flowPara></flowRoot>    </g>
    <path
       style="fill:none;fill-opacity:0.75;fill-rule:evenodd;stroke:black;stroke-width:1px;stroke-linecap:butt;stroke-linejoin:miter;stroke-opacity:1"
       d="M -24.5,556.86218 L -4.5,556.86218 L -4.5,516.86218 L 15.5,516.86218 L 15.5,556.86218 L 35.5,556.86218 L 35.5,516.86218 L 55.5,516.86218 L 55.5,556.86218 L 75.5,556.86218 L 75.5,516.86218 L 95.5,516.86218 L 95.5,556.86218 L 115.5,556.86218 L 115.5,516.86218 L 115.5,516.86218"
       id="path2049"
       sodipodi:nodetypes="cccccccccccccccc" />
    <g
       id="g2938"
       transform="matrix(0.904314,0,0,0.827109,33.4684,25.19419)">
      <flowRoot
         transform="matrix(1,0,0,0.952588,-117.8633,110.6754)"
         style="font-size:36px;fill:red"
         id="flowRoot2010"
         xml:space="preserve"><flowRegion
           id="flowRegion2012"><rect
             style="font-size:36px;fill:red"
             y="524.43542"
             x="32.956558"
             height="36.687489"
             width="73.374977"
             id="rect2014" /></flowRegion><flowPara
           style="font-size:36px;fill:red"
           id="flowPara2016">T</flowPara></flowRoot>      <path
         id="path2051"
         d="M -85.223056,609.27625 L -62.441496,609.27625"
         style="fill:none;fill-opacity:0.75;fill-rule:evenodd;stroke:red;stroke-width:3.23755503;stroke-linecap:butt;stroke-linejoin:miter;stroke-miterlimit:4;stroke-dasharray:none;stroke-opacity:1" />
    </g>
    <path
       style="fill:none;fill-opacity:0.75;fill-rule:evenodd;stroke:black;stroke-width:1px;stroke-linecap:butt;stroke-linejoin:miter;stroke-opacity:1"
       d="M 415.68789,567.71932 L 455.17358,567.71932 L 454.86267,608.07647 L 495.592,608.07647 L 494.97018,567.71932 L 535.3886,567.71932 L 535.3886,608.07647 L 575.18519,608.07647"
       id="path3001"
       sodipodi:nodetypes="cccccccc" />
    <path
       style="fill:none;fill-opacity:0.75;fill-rule:evenodd;stroke:black;stroke-width:1px;stroke-linecap:butt;stroke-linejoin:miter;stroke-opacity:1"
       d="M 374.95856,617.70872 L 455.17358,617.70872 L 454.86267,657.71932 L 535.69951,657.71932 L 535.3886,617.70872 L 575.18519,617.70872"
       id="path3003" />
    <path
       style="fill:none;fill-opacity:0.75;fill-rule:evenodd;stroke:black;stroke-width:1px;stroke-linecap:butt;stroke-linejoin:miter;stroke-opacity:1"
       d="M 296.60901,707.71932 L 454.86267,707.71932 L 454.86267,667.36218 L 575.4961,667.36218"
       id="path3005" />
    <path
       style="fill:none;fill-opacity:0.75;fill-rule:evenodd;stroke:black;stroke-width:1px;stroke-linecap:butt;stroke-linejoin:miter;stroke-opacity:1"
       d="M -24.251051,757.36218 L 295.36537,757.36218 L 295.36537,717.71932 L 575.18519,717.71932"
       id="path3007" />
  </g>
</svg>
